# xmcd
#
# Track frame offsets:
#	182
#	13842
#	29080
#	48530
#	65810
#	81092
#	94830
#	103245
#	124715
#	142972
#	156467
#	173967
#	188332
#	203692
#	220337
#	236315
#
# Disc length: 3350 seconds
#
# Revision: 1
# Processed by: cddbd v1.5.2PL0 Copyright (c) Steve Scherf et al.
# Submitted via: audiograbber 1.83.01
#
DISCID=e40d1410
DTITLE=Salsa Fever (Salsa Fever) - Salsa Fever
DYEAR=2000
DGENRE=Salsa
TTITLE0=Mas que nada
TTITLE1=Samba solare
TTITLE2=Meditation
TTITLE3=Bossa nueve
TTITLE4=Spain
TTITLE5=Eliete
TTITLE6=So danco samba
TTITLE7=Tais
TTITLE8=Livin' la vida loca
TTITLE9=Tequila
TTITLE10=Mi Amo
TTITLE11=Agua de beber
TTITLE12=Samba de orpheu
TTITLE13=Cuban nights
TTITLE14=The look of love
TTITLE15=Cantaloupe island
EXTD=
EXTT0=
EXTT1=
EXTT2=
EXTT3=
EXTT4=
EXTT5=
EXTT6=
EXTT7=
EXTT8=
EXTT9=
EXTT10=
EXTT11=
EXTT12=
EXTT13=
EXTT14=
EXTT15=
PLAYORDER=
